<svg xmlns="http://www.w3.org/2000/svg" viewBox="0 0 77.52 70.12"><defs><style>.cls-1{fill:#eab763;stroke-miterlimit:10;}.cls-1,.cls-3{stroke:#314e55;stroke-width:2px;}.cls-2{fill:#314e55;}.cls-3{fill:#ed6c69;stroke-linecap:round;stroke-linejoin:round;}.cls-4{fill:#eade73;}</style></defs><title>资源 6</title><g id="图层_2" data-name="图层 2"><g id="图层_1-2" data-name="图层 1"><path class="cls-1" d="M25.89,10a21.59,21.59,0,0,0,3.59-2.1C31.42,6.49,33,4.63,34.91,3.16s4.34-2.55,6.69-2c3.57.79,5.56,4.83,9,6.07,2.57.93,5.43.1,7.94-1s5-2.45,7.71-2.64,5.83,1.28,6.38,4c.47,2.29-1,4.58-.89,6.93.2,3.15,3.25,5.35,4.31,8.32,1.63,4.61-1.83,9.54-1.46,14.41.18,2.23,1.14,4.31,1.65,6.49s.46,4.72-1.09,6.34S71.07,51.79,69,52.66c-5.88,2.46-7.94,10.51-13.9,12.76-5.54,2.1-11.94-1.79-17.58,0-4.21,1.35-4.44,3.39-7.85,3.66-4,.31-5.25-2-12.38-5.48-8.41-4-11-2.84-13-6-1.72-2.7-.21-4-1-11.76-.9-8.62-3-9.06-2-12.52,1.54-5.45,6.57-4.13,11.5-11.85,2.91-4.55,2.59-7.27,5.79-8.86C21,11.34,22.4,11.74,25.89,10Z"/><path class="cls-2" d="M42.47,36.06Z"/><path class="cls-2" d="M43.49,33.6h0Z"/><circle id="Oval-99" class="cls-3" cx="44.3" cy="34.75" r="9.98"/><circle id="Oval-100" class="cls-4" cx="35.88" cy="16.29" r="4.23"/><circle id="Oval-100-2" data-name="Oval-100" class="cls-4" cx="20.62" cy="32.17" r="2.3"/><circle id="Oval-100-3" data-name="Oval-100" class="cls-4" cx="27.42" cy="48.96" r="4.23"/><circle id="Oval-100-4" data-name="Oval-100" class="cls-4" cx="48.53" cy="53.19" r="4.23"/></g></g></svg>