<svg xmlns="http://www.w3.org/2000/svg" xmlns:xlink="http://www.w3.org/1999/xlink" viewBox="0 0 101.42 74.05"><defs><style>.cls-1{fill:none;}.cls-2{clip-path:url(#clip-path);}.cls-3{fill:#fffbc7;stroke:#7a7446;stroke-miterlimit:10;stroke-width:2px;}.cls-4{fill:#efed74;}.cls-5{fill:#58c3e5;}</style><clipPath id="clip-path" transform="translate(0 -11)"><rect class="cls-1" x="51.93" width="63.27" height="88.74"/></clipPath></defs><title>资源 1</title><g id="图层_2" data-name="图层 2"><g id="图层_1-2" data-name="图层 1"><g id="图层_4" data-name="图层 4"><g class="cls-2"><path class="cls-3" d="M42.14,12.46a64.46,64.46,0,0,1,32.73,4.43s14.69,6.36,19.27,17.37c.27.65.66,1.73.16,2.38-1.5,1.93-8.22-3.79-16.47-3.49-.86,0-10.7.56-15.1,8.55A16.25,16.25,0,0,0,64,59.23c5.08,6.39,13.85,5.87,15.73,5.7,7.82-.72,14.06-6.29,15.31-4.75a1.56,1.56,0,0,1,0,1.38c-2.91,9.13-14.59,15.62-14.59,15.62a54.56,54.56,0,0,1-18.25,6.11c-4.76.8-8,.78-14.38.75C30.43,84,23.49,80.61,20.6,79,17.94,77.47,3,69,1.18,52.16-.34,38.07,8.36,27.75,11.73,24.28,20.89,14.88,32.37,13.59,42.14,12.46Z" transform="translate(0 -11)"/><circle class="cls-4" cx="82.74" cy="31.64" r="4.5"/><circle class="cls-4" cx="80.61" cy="43" r="4.5"/><polygon class="cls-5" points="72.97 35.88 70.44 36.62 68.54 34.78 69.17 32.22 71.71 31.49 73.61 33.32 72.97 35.88"/><polygon class="cls-5" points="74.08 46.02 71.54 46.75 69.64 44.92 70.28 42.36 72.81 41.63 74.71 43.45 74.08 46.02"/><polygon class="cls-5" points="91.76 43.65 89.22 44.38 87.33 42.55 87.96 39.99 90.49 39.26 92.39 41.09 91.76 43.65"/><polygon class="cls-5" points="100.79 39.33 98.25 40.06 96.35 38.23 96.99 35.67 99.52 34.94 101.42 36.77 100.79 39.33"/></g></g></g></g></svg>